<svg width="14" height="16" viewBox="0 0 14 16" fill="none" xmlns="http://www.w3.org/2000/svg">
<path fill-rule="evenodd" clip-rule="evenodd" d="M11.3154 11.8925C10.7065 10.9051 10.3843 9.77489 10.3843 8.62279V7.06305C10.3843 5.25122 8.8653 3.77456 7.00157 3.77456C5.13783 3.77456 3.61887 5.25122 3.61887 7.06305V8.62279C3.61887 9.77489 3.29664 10.9051 2.68769 11.8925L2.2946 12.5291H11.7085L11.3154 11.8925ZM13.3559 13.1247C13.4154 13.2205 13.4166 13.3405 13.3603 13.4376C13.3034 13.5353 13.1965 13.5957 13.0813 13.5957H0.921818C0.806623 13.5957 0.699768 13.5353 0.6428 13.4376C0.586463 13.3406 0.587752 13.2205 0.64727 13.1247L1.74675 11.3441C2.25361 10.5222 2.52177 9.58153 2.52177 8.62279V7.06305C2.52177 4.66219 4.53192 2.70802 7.00157 2.70802C9.47121 2.70802 11.4814 4.66219 11.4814 7.06305V8.62279C11.4814 9.58153 11.7495 10.5222 12.2564 11.3441L13.3559 13.1247Z" fill="white"/>
<path fill-rule="evenodd" clip-rule="evenodd" d="M5.17423 1.77758C5.17423 0.796819 5.99388 0 7.00274 0C8.01159 0 8.83125 0.796819 8.83125 1.77758V3.02186C8.83125 3.31638 8.58565 3.55513 8.2827 3.55513C7.97974 3.55513 7.73415 3.31638 7.73415 3.02186V1.77758C7.73415 1.38586 7.40569 1.06654 7.00274 1.06654C6.59978 1.06654 6.27132 1.38586 6.27132 1.77758V3.02189C6.27132 3.31641 6.02573 3.55516 5.72277 3.55516C5.41982 3.55516 5.17423 3.31641 5.17423 3.02189V1.77758Z" fill="white"/>
<path fill-rule="evenodd" clip-rule="evenodd" d="M5.89456 12.6714C6.15609 12.8201 6.24414 13.1467 6.09122 13.401C5.99926 13.5539 6.09123 13.4146 6.09122 13.5957M5.89456 12.6714C5.63303 12.5228 5.29705 12.6084 5.14413 12.8626L5.89456 12.6714ZM8.10931 12.6714C8.37084 12.5228 8.70682 12.6084 8.85973 12.8626C9.05066 13.1801 9.15106 13.5425 9.15106 13.9114C9.14933 15.063 8.18695 16 7.0013 16C5.81581 16 4.85285 15.0638 4.85281 13.9114C4.85281 13.5425 4.95321 13.1801 5.14413 12.8626M8.10931 12.6714C7.84778 12.8201 7.75973 13.1467 7.91265 13.401L8.10931 12.6714ZM7.91265 13.401C8.00454 13.5538 8.0549 13.4147 8.05498 13.5957L7.91265 13.401ZM8.05498 13.5957C8.05392 14.1597 7.58059 14.9335 7.0013 14.9335C6.42175 14.9335 6.09125 14.1591 6.09122 13.5957" fill="white"/>
</svg>
