<svg width="19" height="15" viewBox="0 0 19 15" fill="none" xmlns="http://www.w3.org/2000/svg">
<g clip-path="url(#clip0)">
<path d="M18.6301 14.7909V14.8295H18.6655C18.6722 14.8296 18.6787 14.8279 18.6845 14.8245C18.6868 14.8229 18.6887 14.8207 18.6899 14.8181C18.6912 14.8155 18.6917 14.8127 18.6916 14.8098C18.6917 14.807 18.6912 14.8042 18.6899 14.8017C18.6887 14.7992 18.6868 14.797 18.6845 14.7954C18.6788 14.7919 18.6722 14.7902 18.6655 14.7905H18.6301V14.7909ZM18.6659 14.7636C18.6811 14.7627 18.6961 14.7671 18.7084 14.7762C18.7134 14.7803 18.7173 14.7855 18.7199 14.7914C18.7225 14.7973 18.7237 14.8038 18.7234 14.8103C18.7236 14.8159 18.7226 14.8214 18.7206 14.8266C18.7185 14.8318 18.7154 14.8364 18.7114 14.8403C18.7019 14.8486 18.6899 14.8537 18.6774 14.8546L18.7249 14.9096H18.6883L18.6446 14.855H18.6304V14.9096H18.5999V14.7637H18.6664L18.6659 14.7636ZM18.6564 14.9599C18.6724 14.96 18.6883 14.9568 18.703 14.9502C18.7172 14.9441 18.7301 14.9352 18.741 14.9241C18.752 14.9131 18.7607 14.9 18.7668 14.8856C18.7792 14.855 18.7792 14.8207 18.7668 14.7901C18.7606 14.7758 18.7519 14.7627 18.741 14.7516C18.7301 14.7405 18.7172 14.7316 18.703 14.7254C18.6882 14.7193 18.6724 14.7162 18.6564 14.7164C18.6401 14.7162 18.624 14.7193 18.6089 14.7254C18.5944 14.7315 18.5812 14.7404 18.57 14.7516C18.5532 14.7691 18.5419 14.7912 18.5373 14.8152C18.5328 14.8392 18.5354 14.864 18.5447 14.8865C18.5504 14.901 18.5591 14.9141 18.57 14.9251C18.5812 14.9363 18.5944 14.9451 18.6089 14.9512C18.6239 14.9577 18.6401 14.961 18.6564 14.9608V14.9599ZM18.6564 14.6813C18.6981 14.6813 18.7382 14.6979 18.768 14.7276C18.7824 14.7418 18.7938 14.7588 18.8016 14.7776C18.8098 14.7969 18.8139 14.8176 18.8139 14.8386C18.8139 14.8595 18.8098 14.8803 18.8016 14.8995C18.7936 14.9182 18.7822 14.9352 18.768 14.9496C18.7534 14.9638 18.7365 14.9752 18.7179 14.9833C18.6985 14.9917 18.6775 14.996 18.6564 14.9958C18.635 14.996 18.6138 14.9917 18.5941 14.9833C18.5753 14.9754 18.5582 14.9639 18.5436 14.9496C18.5294 14.9346 18.5182 14.9171 18.5105 14.8979C18.5023 14.8786 18.4982 14.8579 18.4982 14.8369C18.4982 14.816 18.5023 14.7952 18.5105 14.776C18.5183 14.7572 18.5297 14.7402 18.5441 14.7259C18.5585 14.7113 18.5756 14.6999 18.5945 14.6922C18.6143 14.6838 18.6355 14.6795 18.6569 14.6797L18.6564 14.6813ZM4.10998 14.1181C4.10998 13.84 4.28953 13.6115 4.58299 13.6115C4.86343 13.6115 5.05267 13.8301 5.05267 14.1181C5.05267 14.406 4.86343 14.6246 4.58299 14.6246C4.28953 14.6246 4.10998 14.3962 4.10998 14.1181ZM5.37234 14.1181V13.3267H5.03329V13.5194C4.92575 13.377 4.76263 13.2876 4.54081 13.2876C4.10381 13.2876 3.76086 13.6354 3.76086 14.1184C3.76086 14.6015 4.10362 14.9493 4.54081 14.9493C4.76254 14.9493 4.92575 14.8598 5.03329 14.7174V14.9096H5.37196V14.1181H5.37234ZM16.8286 14.1181C16.8286 13.84 17.0081 13.6115 17.3017 13.6115C17.5824 13.6115 17.7714 13.8301 17.7714 14.1181C17.7714 14.406 17.5824 14.6246 17.3017 14.6246C17.0082 14.6246 16.8286 14.3962 16.8286 14.1181ZM18.0913 14.1181V12.6914H17.752V13.5194C17.6444 13.377 17.4813 13.2876 17.2595 13.2876C16.8225 13.2876 16.4796 13.6354 16.4796 14.1184C16.4796 14.6015 16.8223 14.9493 17.2595 14.9493C17.4813 14.9493 17.6444 14.8598 17.752 14.7174V14.9096H18.0913V14.1181ZM9.58046 13.5952C9.79896 13.5952 9.93928 13.7342 9.97509 13.979H9.16607C9.20227 13.7505 9.33897 13.5952 9.58056 13.5952H9.58046ZM9.5873 13.2867C9.13035 13.2867 8.81068 13.6241 8.81068 14.1176C8.81068 14.6207 9.14318 14.9484 9.61001 14.9484C9.84485 14.9484 10.0599 14.8889 10.2492 14.7267L10.083 14.4717C9.95229 14.5778 9.78585 14.6372 9.62939 14.6372C9.41089 14.6372 9.21196 14.5346 9.16303 14.2497H10.3208C10.3241 14.2069 10.3275 14.1638 10.3275 14.1175C10.3241 13.6242 10.0235 13.2866 9.58711 13.2866L9.5873 13.2867ZM13.6807 14.1175C13.6807 13.8394 13.8602 13.6109 14.1537 13.6109C14.4341 13.6109 14.6233 13.8295 14.6233 14.1175C14.6233 14.4054 14.4341 14.624 14.1537 14.624C13.8602 14.624 13.6806 14.3956 13.6806 14.1175H13.6807ZM14.9429 14.1175V13.3267H14.6041V13.5194C14.4961 13.377 14.3334 13.2876 14.1116 13.2876C13.6746 13.2876 13.3316 13.6354 13.3316 14.1184C13.3316 14.6015 13.6744 14.9493 14.1116 14.9493C14.3334 14.9493 14.4961 14.8598 14.6041 14.7174V14.9096H14.943V14.1181L14.9429 14.1175ZM11.7659 14.1175C11.7659 14.5974 12.0952 14.9483 12.5978 14.9483C12.8326 14.9483 12.9891 14.8953 13.1583 14.7597L12.9954 14.4816C12.8681 14.5744 12.7345 14.624 12.5869 14.624C12.3163 14.6207 12.1172 14.4221 12.1172 14.1175C12.1172 13.8129 12.3163 13.6144 12.5869 13.6109C12.7341 13.6109 12.8677 13.6606 12.9954 13.7534L13.1583 13.4753C12.9888 13.3397 12.8323 13.2866 12.5978 13.2866C12.0952 13.2866 11.7659 13.6374 11.7659 14.1175ZM16.1369 13.2866C15.9413 13.2866 15.8139 13.3795 15.7258 13.5185V13.3267H15.3898V14.9087H15.7292V14.0219C15.7292 13.76 15.8401 13.6146 16.0617 13.6146C16.1343 13.6135 16.2064 13.6271 16.2738 13.6544L16.3783 13.3301C16.3032 13.3001 16.2054 13.2869 16.1367 13.2869L16.1369 13.2866ZM7.04862 13.4525C6.8855 13.3433 6.66073 13.2869 6.41278 13.2869C6.01777 13.2869 5.76346 13.4791 5.76346 13.7934C5.76346 14.0514 5.95279 14.2105 6.30144 14.2601L6.46161 14.2833C6.64753 14.3098 6.73531 14.3594 6.73531 14.4488C6.73531 14.5711 6.61181 14.6409 6.37991 14.6409C6.14507 14.6409 5.97559 14.5648 5.86131 14.4754L5.70199 14.7437C5.88791 14.8827 6.12275 14.949 6.37706 14.949C6.82736 14.949 7.08833 14.7338 7.08833 14.4326C7.08833 14.1545 6.88294 14.009 6.5436 13.9594L6.38381 13.9359C6.23703 13.9166 6.11942 13.8866 6.11942 13.7806C6.11942 13.6649 6.23029 13.5953 6.4163 13.5953C6.61532 13.5953 6.80798 13.6715 6.90241 13.7309L7.04919 13.4528L7.04862 13.4525ZM11.4235 13.2872C11.2279 13.2872 11.1005 13.3801 11.0128 13.5191V13.3267H10.6768V14.9087H11.0158V14.0219C11.0158 13.76 11.1267 13.6146 11.3483 13.6146C11.4209 13.6135 11.493 13.6271 11.5604 13.6544L11.6649 13.3301C11.5898 13.3001 11.492 13.2869 11.4233 13.2869L11.4235 13.2872ZM8.53014 13.3267H7.97572V12.8467H7.63296V13.3267H7.31671V13.6411H7.63296V14.3628C7.63296 14.7299 7.77337 14.9485 8.17446 14.9485C8.32162 14.9485 8.4911 14.9022 8.59864 14.8262L8.50069 14.5316C8.39952 14.5911 8.28865 14.6211 8.20049 14.6211C8.03101 14.6211 7.97572 14.515 7.97572 14.3563V13.6414H8.53014V13.3267ZM3.46104 14.9091V13.9162C3.46104 13.5423 3.2262 13.2907 2.84762 13.2873C2.6486 13.284 2.4433 13.3468 2.29957 13.5688C2.19203 13.3934 2.02255 13.2873 1.78429 13.2873C1.61775 13.2873 1.45502 13.337 1.32762 13.5222V13.3267H0.988281V14.9087H1.33028V14.0315C1.33028 13.7569 1.48038 13.6109 1.71218 13.6109C1.93733 13.6109 2.05124 13.7599 2.05124 14.028V14.9085H2.394V14.0313C2.394 13.7567 2.55046 13.6107 2.77552 13.6107C3.00703 13.6107 3.11752 13.7597 3.11752 14.0278V14.9083L3.46104 14.9091Z" fill="white"/>
<path d="M18.8152 9.65727V9.42578H18.7558L18.6871 9.58464L18.6188 9.42578H18.5592V9.65727H18.6014V9.48288L18.6656 9.63335H18.7093L18.7736 9.4825V9.65727H18.8154H18.8152ZM18.4385 9.65727V9.46542H18.5145V9.42636H18.3203V9.46542H18.3963V9.65727H18.4381H18.4385Z" fill="#F79410"/>
<path d="M12.0677 10.6514H6.92969V1.28125H12.0678L12.0677 10.6514Z" fill="#FF5F00"/>
<path d="M7.258 5.95923C7.258 4.05849 8.13504 2.3653 9.50076 1.27414C8.46698 0.446967 7.18835 -0.00196742 5.87186 6.48149e-06C2.62884 6.48149e-06 0 2.668 0 5.95923C0 9.25046 2.62884 11.9185 5.87186 11.9185C7.18839 11.9204 8.46705 11.4715 9.50086 10.6443C8.13523 9.55335 7.258 7.86006 7.258 5.95923Z" fill="#EB001B"/>
<path d="M19.0015 5.95923C19.0015 9.25046 16.3726 11.9184 13.1295 11.9184C11.8128 11.9204 10.534 11.4715 9.5 10.6443C10.8661 9.55315 11.7432 7.86006 11.7432 5.95923C11.7432 4.05839 10.8661 2.3653 9.5 1.27414C10.534 0.446992 11.8128 -0.00193282 13.1294 6.25542e-06C16.3725 6.25542e-06 19.0014 2.668 19.0014 5.95923" fill="#F79E1B"/>
</g>
<defs>
<clipPath id="clip0">
<rect width="19" height="15" fill="white"/>
</clipPath>
</defs>
</svg>
