<svg width="22" height="7" viewBox="0 0 22 7" fill="none" xmlns="http://www.w3.org/2000/svg">
<path d="M9.53721 6.88332H7.74205L8.864 0.120836H10.6593L9.53721 6.88332ZM6.23186 0.120836L4.52044 4.77213L4.31792 3.77052L4.31811 3.77089L3.71407 0.729721C3.71407 0.729721 3.64103 0.120836 2.86251 0.120836H0.0331993L0 0.235341C0 0.235341 0.865208 0.411892 1.87778 1.00829L3.43741 6.8835H5.30781L8.16387 0.120836H6.23186ZM20.3517 6.88332H22L20.5628 0.120655H19.1198C18.4534 0.120655 18.2911 0.624622 18.2911 0.624622L15.6138 6.88332H17.4851L17.8593 5.87883H20.1414L20.3517 6.88332ZM18.3763 4.4912L19.3195 1.96051L19.8502 4.4912H18.3763ZM15.7541 1.74706L16.0103 0.294854C16.0103 0.294854 15.2198 0 14.3957 0C13.5049 0 11.3894 0.381864 11.3894 2.23873C11.3894 3.98579 13.8723 4.00749 13.8723 4.92516C13.8723 5.84283 11.6452 5.6784 10.9102 5.09972L10.6433 6.61814C10.6433 6.61814 11.4449 7 12.6696 7C13.8946 7 15.7427 6.37791 15.7427 4.68476C15.7427 2.92648 13.2374 2.76277 13.2374 1.99832C13.2376 1.23369 14.9859 1.33191 15.7541 1.74706Z" fill="white"/>
</svg>
