<svg width="26" height="7" viewBox="0 0 26 7" fill="none" xmlns="http://www.w3.org/2000/svg">
<path d="M17.7786 1.91461C17.6681 2.64788 17.1137 2.64788 16.5776 2.64788H16.2726L16.4866 1.27879C16.4997 1.19609 16.5701 1.13525 16.653 1.13525H16.793C17.1581 1.13525 17.5028 1.13525 17.6806 1.34517C17.7867 1.4708 17.8188 1.65728 17.7786 1.91461ZM17.5453 0.00136662H15.5229C15.456 0.00139999 15.3912 0.025548 15.3402 0.0694761C15.2893 0.113404 15.2555 0.174234 15.245 0.241049L14.4278 5.47903C14.424 5.50331 14.4255 5.52813 14.4322 5.55178C14.4388 5.57543 14.4504 5.59735 14.4662 5.61604C14.482 5.63473 14.5016 5.64975 14.5237 5.66006C14.5458 5.67037 14.5698 5.67573 14.5942 5.67578H15.6319C15.7287 5.67578 15.8111 5.60467 15.8262 5.50827L16.0582 4.02276C16.0796 3.88501 16.1975 3.78308 16.3357 3.78308H16.9755C18.3079 3.78308 19.0766 3.13225 19.2774 1.84139C19.3679 1.27721 19.281 0.83367 19.0195 0.523136C18.7319 0.181787 18.2222 0.00110292 17.5455 0.00110292" fill="white"/>
<path d="M3.35289 1.91332C3.24234 2.64659 2.68799 2.64659 2.15164 2.64659H1.84657L2.06064 1.27751C2.07368 1.1948 2.14408 1.13396 2.227 1.13396H2.36702C2.73206 1.13396 3.07676 1.13396 3.25459 1.34388C3.36097 1.46952 3.39305 1.65599 3.35289 1.91332ZM3.11953 7.82013e-05H1.0972C0.959002 7.82013e-05 0.841145 0.101746 0.819503 0.23976L0.00207131 5.47774C-0.0017351 5.50203 -0.000283068 5.52687 0.00632646 5.55054C0.012936 5.57421 0.0245463 5.59615 0.0403577 5.61485C0.0561692 5.63355 0.0758055 5.64856 0.0979147 5.65886C0.120024 5.66916 0.14408 5.67449 0.168426 5.67449H1.13422C1.27242 5.67449 1.39001 5.57283 1.41165 5.43481L1.6325 4.02174C1.65388 3.88372 1.77174 3.78206 1.90993 3.78206H2.5498C3.8822 3.78206 4.65088 3.13096 4.85165 1.8401C4.94213 1.27593 4.8553 0.832381 4.59377 0.521848C4.30617 0.180498 3.79642 -0.00018549 3.11979 -0.00018549L3.11953 7.82013e-05ZM7.81474 3.79391C7.72087 4.35282 7.28204 4.72814 6.7217 4.72814C6.44088 4.72814 6.21586 4.63675 6.07141 4.46397C5.928 4.29276 5.87429 4.0486 5.91966 3.77705C6.00674 3.22288 6.45314 2.83571 7.00487 2.83571C7.27996 2.83571 7.50289 2.92789 7.65047 3.10225C7.79884 3.27793 7.85724 3.52341 7.81474 3.79391ZM9.16435 1.88962H8.19595C8.15569 1.88957 8.11674 1.90406 8.08614 1.93049C8.05554 1.95691 8.0353 1.99351 8.02907 2.03369L7.98683 2.30709L7.91904 2.20805C7.7094 1.90068 7.24189 1.7977 6.77516 1.7977C5.70532 1.7977 4.79142 2.61683 4.61359 3.7652C4.52102 4.33859 4.65244 4.88618 4.9742 5.26835C5.26962 5.61945 5.69124 5.76562 6.1937 5.76562C7.05624 5.76562 7.53444 5.20619 7.53444 5.20619L7.49116 5.47801C7.48735 5.50232 7.48881 5.52718 7.49543 5.55086C7.50206 5.57455 7.51369 5.59651 7.52953 5.61521C7.54537 5.63392 7.56504 5.64893 7.58718 5.65921C7.60932 5.66949 7.63341 5.67479 7.65778 5.67476H8.5297C8.6679 5.67476 8.78575 5.57335 8.80739 5.43507L9.33097 2.08663C9.33474 2.0623 9.33324 2.03744 9.32658 2.01375C9.31993 1.99007 9.30827 1.96812 9.29241 1.94942C9.27655 1.93072 9.25686 1.91572 9.23471 1.90544C9.21256 1.89516 9.18847 1.88985 9.16409 1.88988" fill="white"/>
<path d="M22.2418 3.79391C22.148 4.35282 21.7091 4.72814 21.1488 4.72814C20.868 4.72814 20.643 4.63675 20.4985 4.46397C20.3551 4.29276 20.3014 4.0486 20.3468 3.77705C20.4338 3.22288 20.88 2.83571 21.432 2.83571C21.7071 2.83571 21.93 2.92789 22.0776 3.10225C22.2259 3.27793 22.2843 3.52341 22.2418 3.79391ZM23.5914 1.88962H22.623C22.5828 1.88957 22.5438 1.90407 22.5132 1.93049C22.4826 1.95691 22.4624 1.99351 22.4562 2.03369L22.4139 2.30709L22.3461 2.20805C22.1365 1.90068 21.669 1.7977 21.2022 1.7977C20.1327 1.7977 19.2188 2.61683 19.0407 3.7652C18.9481 4.33859 19.0798 4.88618 19.4016 5.26835C19.697 5.61945 20.1186 5.76562 20.6211 5.76562C21.4839 5.76562 21.9621 5.20619 21.9621 5.20619L21.9188 5.47801C21.9149 5.50229 21.9163 5.52714 21.9228 5.55082C21.9294 5.57451 21.941 5.59648 21.9568 5.6152C21.9726 5.63391 21.9922 5.64894 22.0143 5.65922C22.0364 5.6695 22.0605 5.67481 22.0849 5.67476H22.9565C23.0947 5.67476 23.2126 5.57335 23.2345 5.43507L23.7581 2.08663C23.7618 2.0623 23.7603 2.03744 23.7537 2.01375C23.747 1.99007 23.7354 1.96812 23.7195 1.94942C23.7036 1.93072 23.684 1.91572 23.6618 1.90544C23.6397 1.89516 23.6156 1.88985 23.5912 1.88988" fill="white"/>
<path d="M14.3209 1.89134H13.3473C13.2542 1.89134 13.1674 1.93796 13.1153 2.01592L11.7724 4.01345L11.2032 2.09389C11.1859 2.03534 11.1503 1.98399 11.1018 1.94747C11.0533 1.91094 10.9944 1.89117 10.9339 1.89108H9.97721C9.95039 1.89109 9.92395 1.89757 9.9001 1.90997C9.87624 1.92237 9.85566 1.94033 9.84006 1.96238C9.82446 1.98442 9.81429 2.00991 9.81039 2.03672C9.80649 2.06353 9.80897 2.09089 9.81764 2.11654L10.8893 5.29457L9.88126 6.73135C9.86345 6.75685 9.85291 6.7868 9.8508 6.81794C9.84869 6.84908 9.85508 6.88021 9.86929 6.90793C9.88349 6.93565 9.90496 6.95889 9.93135 6.97513C9.95774 6.99136 9.98803 6.99997 10.0189 7H10.9915C11.0833 7 11.1696 6.95443 11.2223 6.87805L14.4591 2.15868C14.4767 2.13317 14.487 2.10328 14.489 2.07227C14.4909 2.04125 14.4844 2.01028 14.4702 1.98273C14.456 1.95518 14.4345 1.9321 14.4082 1.91599C14.3819 1.89988 14.3517 1.89135 14.3209 1.89134Z" fill="white"/>
<path d="M24.7307 0.145176L23.9005 5.47903C23.8967 5.50334 23.8982 5.52818 23.9048 5.55185C23.9115 5.57551 23.9231 5.59745 23.9389 5.61614C23.9548 5.63484 23.9744 5.64985 23.9965 5.66014C24.0187 5.67044 24.0427 5.67577 24.0671 5.67578H24.9017C25.0399 5.67578 25.1578 5.57411 25.1794 5.4361L25.9979 0.197854C26.0017 0.173541 26.0002 0.148684 25.9936 0.124996C25.987 0.101308 25.9754 0.0793538 25.9595 0.0606489C25.9437 0.041944 25.924 0.0269337 25.9019 0.0166531C25.8797 0.00637293 25.8556 0.00106764 25.8313 0.00110388H24.8973C24.8571 0.0010004 24.8182 0.015449 24.7876 0.041831C24.757 0.068213 24.7368 0.104782 24.7307 0.144913" fill="white"/>
</svg>
