<svg width="18" height="18" viewBox="0 0 18 18" fill="none" xmlns="http://www.w3.org/2000/svg">
<g clip-path="url(#clip0)">
<path d="M6.93745 5.50005H1.31245C0.864906 5.50005 0.5 5.13521 0.5 4.68745V1.31245C0.5 0.864872 0.864872 0.5 1.31245 0.5H6.93745C7.38521 0.5 7.75005 0.864906 7.75005 1.31245V4.68745C7.75005 5.13517 7.38517 5.50005 6.93745 5.50005Z" stroke="white"/>
<path d="M6.93745 17.5H1.31245C0.864872 17.5 0.5 17.1352 0.5 16.6876V8.81259C0.5 8.36484 0.864906 8 1.31245 8H6.93745C7.38517 8 7.75005 8.36487 7.75005 8.81259V16.6876C7.75005 17.1351 7.38521 17.5 6.93745 17.5Z" stroke="white"/>
<path d="M16.6915 17.5H11.0665C10.6187 17.5 10.2539 17.1351 10.2539 16.6876V13.3126C10.2539 12.8649 10.6188 12.5 11.0665 12.5H16.6915C17.139 12.5 17.504 12.8648 17.504 13.3126V16.6876C17.504 17.1352 17.1391 17.5 16.6915 17.5Z" stroke="white"/>
<path d="M16.6915 10H11.0665C10.6188 10 10.2539 9.63517 10.2539 9.18745V1.31245C10.2539 0.864906 10.6187 0.5 11.0665 0.5H16.6915C17.1391 0.5 17.504 0.864872 17.504 1.31245V9.18745C17.504 9.63521 17.139 10 16.6915 10Z" stroke="white"/>
</g>
<defs>
<clipPath id="clip0">
<rect width="18" height="18" fill="white"/>
</clipPath>
</defs>
</svg>
