<svg width="19" height="20" viewBox="0 0 19 20" fill="none" xmlns="http://www.w3.org/2000/svg">
<path fill-rule="evenodd" clip-rule="evenodd" d="M0.683672 3.02972C-0.116522 1.69668 0.843174 0 2.39737 0H5.43035C6.16132 0 6.834 0.399173 7.18453 1.04094L9.12331 4.5906L11.0823 1.03459C11.4339 0.396373 12.1046 0 12.833 0H15.815C17.3692 0 18.3289 1.69669 17.5287 3.02972L13.2933 10.0855L17.8877 16.8792C18.7859 18.2074 17.8348 20 16.232 20H13.4156C12.7209 20 12.0759 19.6391 11.7123 19.0468L9.11652 14.8186L6.49887 19.0522C6.13455 19.6414 5.49137 20 4.79886 20H2.00239C0.40146 20 -0.549958 18.2111 0.344445 16.8826L4.91988 10.0868L0.683672 3.02972ZM5.43035 2L2.39737 2L7.28866 10.1483L2.00239 18H4.79886L9.12258 11.0072L13.4156 18L16.232 18L10.923 10.1496L15.815 2L12.833 2L9.11579 8.74757L5.43035 2Z" fill="#979797"/>
</svg>
