<svg width="12" height="12" viewBox="0 0 12 12" fill="none" xmlns="http://www.w3.org/2000/svg">
<path d="M7.69334 5.89817L7.57838 6.08958L7.7035 6.27451L11.1822 11.4159C11.2496 11.5156 11.1783 11.65 11.058 11.65H8.77225C8.72012 11.65 8.67173 11.6229 8.64444 11.5785L6.29823 7.75876L6.00106 7.27495L5.70235 7.75781L3.33855 11.5789C3.31121 11.6231 3.26295 11.65 3.21098 11.65H0.939656C0.819526 11.65 0.748135 11.5158 0.815248 11.4162L4.2791 6.27391L4.40356 6.08915L4.28886 5.89817L1.09322 0.577229C1.03318 0.477251 1.10519 0.35 1.22181 0.35H3.63816C3.69301 0.35 3.74349 0.379938 3.76979 0.42807L4.07693 0.260234L3.76979 0.42807L5.69287 3.94723L5.99868 4.50686L6.30652 3.94834L8.24705 0.427594C8.27343 0.379728 8.32376 0.35 8.37842 0.35H10.7604C10.877 0.35 10.949 0.477252 10.889 0.577229L7.69334 5.89817Z" stroke="#FF035A" stroke-width="0.7"/>
</svg>
