<svg width="18" height="18" viewBox="0 0 18 18" fill="none" xmlns="http://www.w3.org/2000/svg">
<path d="M11.5614 8.86013L11.3972 9.13358L11.576 9.39775L16.5301 16.7198C16.7548 17.0518 16.5169 17.5 16.116 17.5H13.2982C13.1244 17.5 12.9631 17.4098 12.8722 17.2617L9.42605 11.6512L9.00151 10.9601L8.57479 11.6499L5.10238 17.263C5.01125 17.4104 4.85038 17.5 4.67716 17.5H1.87931C1.47888 17.5 1.24091 17.0528 1.46462 16.7207L6.39792 9.3969L6.57571 9.13295L6.41186 8.86013L1.84585 1.25743C1.6457 0.924172 1.88574 0.5 2.27448 0.5H5.30897C5.4918 0.5 5.66006 0.599794 5.74773 0.760234L8.56124 5.90885L8.99812 6.70833L9.43789 5.91044L12.2774 0.758648C12.3653 0.599093 12.5331 0.5 12.7153 0.5H15.6988C16.0876 0.5 16.3276 0.924171 16.1274 1.25743L11.5614 8.86013Z" stroke="white"/>
</svg>
