<svg width="13" height="13" viewBox="0 0 13 13" fill="none" xmlns="http://www.w3.org/2000/svg">
<path d="M11.8712 12.4743L10.5913 10.5377L10.5913 10.5376C10.5069 10.41 10.3605 10.3116 10.1801 10.3116H5.80484C5.52835 10.3116 5.20156 10.0182 5.20156 9.5222V4.83077C5.20156 4.33476 5.52836 4.04141 5.80484 4.04141H12.0471C12.3236 4.04141 12.6504 4.33476 12.6504 4.83075V9.5222C12.6504 9.95133 12.3919 10.2454 12.145 10.3005L11.8712 10.3616V10.6421V12.4743Z" stroke="#2A2A2A" stroke-width="0.7"/>
<path d="M9.87638 3.95371V2.58336C9.87638 1.73812 9.21273 1 8.33392 1H2.54246C1.66365 1 1 1.73812 1 2.58336V6.39083C1 6.94472 1.28285 7.44666 1.72289 7.73116V8.93521C1.72289 9.3167 1.95173 9.67684 2.33433 9.81574C2.4347 9.85218 2.54044 9.87105 2.64731 9.87105C2.94011 9.87105 3.20667 9.73073 3.37798 9.504L4.37631 8.23067" stroke="black" stroke-width="0.7" stroke-linecap="round"/>
</svg>
