<svg width="21" height="19" viewBox="0 0 21 19" fill="none" xmlns="http://www.w3.org/2000/svg">
<path d="M19.5133 14.9113L19.1069 14.9888V15.4025V18.4762C19.1069 18.4823 19.106 18.4862 19.1053 18.4884C19.1046 18.4906 19.1039 18.4918 19.1035 18.4923L19.1023 18.4936C19.1019 18.4939 19.1005 18.4949 19.0974 18.496L19.0973 18.496C19.0968 18.4962 19.0964 18.4963 19.0961 18.4964C19.0951 18.4955 19.0939 18.4942 19.0924 18.4923L19.0924 18.4923L16.5668 15.2313L16.5668 15.2313C16.4216 15.0438 16.1988 14.9322 15.9583 14.9322H8.13757C7.48335 14.9322 6.93359 14.3858 6.93359 13.6943V6.53862C6.93359 5.84717 7.48337 5.30078 8.13757 5.30078H19.2956C19.9498 5.30078 20.4996 5.84717 20.4996 6.53858V13.6943C20.4996 14.3012 20.066 14.806 19.5133 14.9113Z" stroke="white"/>
<path d="M13.7559 4.85859V2.55152C13.7559 1.69602 13.0735 1 12.2347 1H2.52129C1.68246 1 1 1.69602 1 2.55152V8.78073C1 9.5244 1.5223 10.1527 2.21242 10.2995V12.9435C2.21242 13.1557 2.33945 13.3379 2.53609 13.4076C2.58941 13.4264 2.64371 13.4356 2.69714 13.4356C2.84078 13.4356 2.97808 13.3694 3.0721 13.248L5.27069 10.4093C5.30241 10.3683 5.34784 10.3417 5.39854 10.3343" stroke="white" stroke-linecap="round"/>
</svg>
