<svg width="30" height="30" viewBox="0 0 30 30" fill="none" xmlns="http://www.w3.org/2000/svg">
<path d="M17.7 14.85C17.7 16.424 16.424 17.7 14.85 17.7C13.276 17.7 12 16.424 12 14.85C12 13.276 13.276 12 14.85 12C16.424 12 17.7 13.276 17.7 14.85Z" fill="#E0E0E0"/>
<path fill-rule="evenodd" clip-rule="evenodd" d="M21.5546 10.0798C21.4168 9.70642 21.197 9.36844 20.9113 9.09103C20.6339 8.80539 20.2962 8.58556 19.9225 8.44776C19.6195 8.33008 19.1643 8.19 18.3259 8.15184C17.4189 8.11047 17.147 8.10156 14.8509 8.10156C12.5546 8.10156 12.2826 8.11025 11.3759 8.15161C10.5375 8.19 10.082 8.33008 9.77926 8.44776C9.40564 8.58556 9.06766 8.80539 8.79048 9.09103C8.50483 9.36844 8.285 9.70619 8.14698 10.0798C8.0293 10.3828 7.88922 10.8382 7.85105 11.6767C7.80969 12.5834 7.80078 12.8553 7.80078 15.1517C7.80078 17.4478 7.80969 17.7197 7.85105 18.6267C7.88922 19.4651 8.0293 19.9203 8.14698 20.2233C8.285 20.5969 8.5046 20.9347 8.79025 21.2121C9.06766 21.4977 9.40541 21.7176 9.77903 21.8554C10.082 21.9733 10.5375 22.1134 11.3759 22.1515C12.2826 22.1929 12.5543 22.2016 14.8507 22.2016C17.1472 22.2016 17.4192 22.1929 18.3257 22.1515C19.1641 22.1134 19.6195 21.9733 19.9225 21.8554C20.6725 21.5661 21.2653 20.9733 21.5546 20.2233C21.6723 19.9203 21.8123 19.4651 21.8507 18.6267C21.8921 17.7197 21.9008 17.4478 21.9008 15.1517C21.9008 12.8553 21.8921 12.5834 21.8507 11.6767C21.8126 10.8382 21.6725 10.3828 21.5546 10.0798ZM14.8509 19.5673C12.412 19.5673 10.4349 17.5904 10.4349 15.1514C10.4349 12.7125 12.412 10.7356 14.8509 10.7356C17.2896 10.7356 19.2667 12.7125 19.2667 15.1514C19.2667 17.5904 17.2896 19.5673 14.8509 19.5673ZM18.4093 10.5611C18.4093 11.131 18.8714 11.593 19.4413 11.593C20.0112 11.593 20.473 11.131 20.4733 10.5611C20.4733 9.99114 20.0112 9.52909 19.4413 9.52909C18.8714 9.52909 18.4093 9.99114 18.4093 10.5611Z" fill="#E0E0E0"/>
<path fill-rule="evenodd" clip-rule="evenodd" d="M0 15C0 6.717 6.717 0 15 0C23.283 0 30 6.717 30 15C30 23.283 23.283 30 15 30C6.717 30 0 23.283 0 15ZM23.161 20.6419C23.3739 20.094 23.5197 19.468 23.5613 18.5511C23.6034 17.6326 23.6133 17.3392 23.6133 15C23.6133 12.6608 23.6034 12.3674 23.5616 11.4489C23.5197 10.532 23.3741 9.90601 23.161 9.35806C22.9449 8.78334 22.6057 8.26286 22.1677 7.83257C21.7374 7.39426 21.2167 7.05505 20.6419 6.83876C20.094 6.62613 19.468 6.48056 18.5511 6.4389C17.6326 6.39679 17.3392 6.38672 15 6.38672C12.6608 6.38672 12.3674 6.39679 11.4489 6.43867C10.532 6.48056 9.90601 6.62613 9.35806 6.83899C8.78334 7.05528 8.26263 7.39426 7.83257 7.83257C7.39426 8.26263 7.05505 8.78334 6.83876 9.35806C6.6259 9.90601 6.48033 10.532 6.43867 11.4489C6.39656 12.3674 6.38672 12.6608 6.38672 15C6.38672 17.3392 6.39656 17.6326 6.4389 18.5513C6.48056 19.468 6.62636 20.0942 6.83922 20.6419C7.05551 21.2167 7.39449 21.7374 7.83257 22.1674C8.26286 22.6057 8.78334 22.9447 9.35829 23.161C9.90601 23.3739 10.5322 23.5194 11.4489 23.5613C12.3676 23.6032 12.6608 23.6133 15.0002 23.6133C17.3394 23.6133 17.6328 23.6032 18.5513 23.5613C19.468 23.5194 20.0942 23.3739 20.6419 23.161C21.7989 22.7135 22.7135 21.7989 23.161 20.6419Z" fill="#E0E0E0"/>
</svg>
