<svg width="18" height="18" viewBox="0 0 18 18" fill="none" xmlns="http://www.w3.org/2000/svg">
<path d="M11.8968 3.13582C12.3055 3.4371 12.7823 3.59635 13.2788 3.59635C13.4559 3.59635 13.6211 3.54765 13.761 3.45936C13.7406 3.43154 13.7199 3.40389 13.699 3.37644L14.0969 3.07366L14.1656 3.10559C14.1523 3.08767 14.1388 3.06982 14.1253 3.05204C14.0098 2.90021 13.8878 2.75364 13.7597 2.61276M11.8968 3.13582H6.10364C5.69488 3.4371 5.21812 3.59635 4.72488 3.59635H4.72122C4.54415 3.59635 4.37898 3.54765 4.23906 3.45936C4.25948 3.43153 4.28014 3.4039 4.30103 3.37644L3.90313 3.07366L3.83442 3.1056C3.84776 3.08767 3.86119 3.06982 3.87472 3.05204C3.99019 2.90021 4.11219 2.75364 4.24029 2.61276M11.8968 3.13582C11.8165 3.07662 11.4495 2.87888 11.1599 2.72277M11.8968 3.13582L11.1599 2.72277M13.7597 2.61276L13.9869 2.12396C12.7235 0.814845 10.9547 0 9 0C7.04527 0 5.27654 0.814857 4.01313 2.12399L4.24029 2.61276M13.7597 2.61276C12.5798 1.31508 10.8823 0.5 9 0.5C7.11773 0.5 5.42025 1.31508 4.24029 2.61276M13.7597 2.61276L13.6435 2.86295C13.5747 3.01101 13.4412 3.09635 13.2788 3.09635C12.892 3.09635 12.5186 2.97305 12.1935 2.73334L12.1934 2.7333C12.1318 2.68793 12.0259 2.62727 11.9376 2.57758C11.8363 2.52064 11.7138 2.45376 11.5935 2.38864C11.5172 2.34732 11.4437 2.30774 11.3769 2.27171C11.2223 2.18841 11.103 2.12412 11.0649 2.10132L11.0306 2.08074L10.9933 2.0659C10.3588 1.81283 9.68751 1.68468 9 1.68468C7.84282 1.68468 6.73725 2.0476 5.80699 2.73333C5.48144 2.97328 5.10803 3.09635 4.72488 3.09635H4.72122C4.55882 3.09635 4.42538 3.01102 4.35656 2.86293L4.24029 2.61276M2.59609 6.67058L2.56326 6.62654C2.56251 6.64067 2.56181 6.65481 2.56115 6.66896C2.55648 6.76984 2.55412 6.87132 2.55412 6.97334V7.32558M2.59609 6.67058L1.5614 13.6522C0.700421 13.6522 0 12.949 0 12.0846V9.04719C0 8.18288 0.700421 7.47965 1.5614 7.47965H2.05412V6.97965V6.97334C2.05412 5.13183 2.76881 3.45474 3.93434 2.20697L3.50523 2.77088C2.67899 3.85668 2.16399 5.19446 2.09663 6.64742L2.08151 6.97334L2.05804 7.47965L2.05412 7.56419L2.04767 7.70322L2.05412 7.69841L2.34749 7.47965L2.55412 7.32558M2.59609 6.67058L3.09555 6.69374C3.09956 6.6072 3.10543 6.52115 3.11311 6.43562L2.59609 6.67058ZM2.55412 7.32558L2.89498 7.07141C3.03467 6.96724 3.20609 6.90621 3.39217 6.90621H3.97735C4.43718 6.90621 4.8154 7.2831 4.8154 7.74952V10.9673L4.81544 13.3824C4.81544 13.8488 4.43718 14.2257 3.97738 14.2257H3.3922C2.99051 14.2257 2.64979 13.9377 2.57121 13.5523L2.48962 13.1522H2.08129H1.5614C0.978428 13.1522 0.5 12.6747 0.5 12.0846V9.04719C0.5 8.45716 0.978421 7.97965 1.5614 7.97965H2.05412H2.55412V7.47965V7.32558ZM11.1599 2.72277C10.9958 2.63436 10.8565 2.55929 10.8081 2.53032L11.1599 2.72277ZM15.4459 7.47965V7.97965H15.9459H16.4387C17.0217 7.97965 17.5 8.45716 17.5 9.04715V9.04719V12.0847C17.5 12.6748 17.0216 13.1522 16.4386 13.1522H15.9458H15.4458V13.6522V13.8029L15.1097 14.0571C14.969 14.1634 14.7959 14.2258 14.6078 14.2258H14.0227C13.5628 14.2258 13.1846 13.8489 13.1846 13.3824V7.74956C13.1846 7.28315 13.5628 6.90625 14.0227 6.90625H14.6078C14.7939 6.90625 14.9653 6.96728 15.1051 7.07147L15.4459 7.32557V7.47965ZM3.56787 3.492C3.57513 3.50259 3.58252 3.51307 3.59004 3.52342C3.11101 4.27781 2.78414 5.13856 2.65318 6.06187C2.64052 6.06746 2.62792 6.0732 2.61541 6.07907C2.74559 5.13714 3.07836 4.25951 3.56787 3.492ZM14.0658 2.20708C15.2313 3.45483 15.9459 5.13188 15.9459 6.97334V6.97965V7.47965H16.4387C17.2997 7.47965 18.0001 8.18288 18 9.04719V12.0847C18 12.9491 17.2995 13.6522 16.4386 13.6522H15.9458V14.1522V14.4983C15.9458 16.4291 14.3812 18 12.4579 18H9.41474C8.80516 18 8.30925 17.5021 8.30925 16.8901C8.30925 16.2782 8.80516 15.7802 9.41474 15.7802H10.2511C10.8607 15.7802 11.3566 16.2781 11.3566 16.8901C11.3566 16.9147 11.3558 16.9391 11.3543 16.9632H11.1975V17.4632L14.0658 2.20708ZM14.41 3.52343C14.4175 3.51307 14.4249 3.5026 14.4322 3.49201C14.9217 4.25954 15.2545 5.13717 15.3846 6.07912C15.3721 6.07325 15.3595 6.06751 15.3469 6.06192C15.2159 5.1386 14.889 4.27785 14.41 3.52343ZM15.4039 6.67061L15.4368 6.62657L15.4039 6.67061ZM10.5915 17.5H9.41474C9.08319 17.5 8.80925 17.2278 8.80925 16.8901C8.80925 16.5524 9.08317 16.2802 9.41474 16.2802H10.2511C10.5827 16.2802 10.8566 16.5524 10.8566 16.8901C10.8566 17.0059 10.8247 17.1131 10.7693 17.2051L10.5915 17.5Z" stroke="white"/>
</svg>
