<svg width="18" height="18" viewBox="0 0 18 18" fill="none" xmlns="http://www.w3.org/2000/svg">
<path d="M8.71875 0.53125C3.90234 0.53125 0 4.46875 0 9.25C0 14.0664 3.90234 17.9688 8.71875 17.9688C13.5 17.9688 17.4375 14.0664 17.4375 9.25C17.4375 4.46875 13.5 0.53125 8.71875 0.53125ZM12.2344 13.3633C12.0938 13.3633 11.9883 13.3281 11.8828 13.2578C9.66797 11.9219 7.13672 11.8867 4.60547 12.3789C4.46484 12.4141 4.28906 12.4844 4.18359 12.4844C3.83203 12.4844 3.62109 12.2031 3.62109 11.9219C3.62109 11.5703 3.83203 11.3945 4.11328 11.3242C6.99609 10.6914 9.91406 10.7617 12.4453 12.2383C12.6562 12.3789 12.7617 12.5195 12.7617 12.8359C12.7617 13.1523 12.5156 13.3633 12.2344 13.3633ZM13.1836 11.0781C13.0078 11.0781 12.8672 10.9727 12.7617 10.9375C10.5469 9.63672 7.27734 9.10938 4.35938 9.88281C4.18359 9.91797 4.11328 9.98828 3.9375 9.98828C3.58594 9.98828 3.26953 9.67188 3.26953 9.28516C3.26953 8.93359 3.44531 8.6875 3.79688 8.58203C4.78125 8.30078 5.80078 8.08984 7.24219 8.08984C9.52734 8.08984 11.7422 8.65234 13.4648 9.70703C13.7461 9.84766 13.8867 10.0938 13.8867 10.375C13.8516 10.7617 13.5703 11.0781 13.1836 11.0781ZM14.2734 8.40625C14.0977 8.40625 13.9922 8.33594 13.8164 8.26562C11.3203 6.75391 6.85547 6.40234 3.9375 7.21094C3.83203 7.24609 3.65625 7.31641 3.48047 7.31641C3.02344 7.31641 2.67188 6.92969 2.67188 6.47266C2.67188 5.98047 2.98828 5.73438 3.30469 5.62891C4.53516 5.27734 5.90625 5.10156 7.41797 5.10156C9.98438 5.10156 12.6914 5.62891 14.625 6.78906C14.9062 6.92969 15.082 7.14062 15.082 7.5625C15.082 8.05469 14.6953 8.40625 14.2734 8.40625Z" fill="white"/>
</svg>
