<svg width="18" height="18" viewBox="0 0 18 18" fill="none" xmlns="http://www.w3.org/2000/svg">
<path d="M15.4624 9.61317C15.5259 9.74896 15.5079 9.90978 15.4162 10.0272L9.29856 17.8533C9.22591 17.946 9.11618 18 8.99995 18C8.88371 18 8.77398 17.946 8.70133 17.8533L2.5841 10.0272C2.49196 9.90978 2.47399 9.74856 2.53784 9.61317C2.60131 9.47739 2.73551 9.3913 2.88234 9.3913H6.32349V0.782609C6.32349 0.351 6.66646 0 7.08819 0H10.9117C11.3334 0 11.6764 0.351 11.6764 0.782609V9.3913H15.1176C15.2644 9.3913 15.3986 9.47739 15.4624 9.61317Z" fill="#FF035A"/>
</svg>
