<svg width="24" height="24" viewBox="0 0 24 24" fill="none" xmlns="http://www.w3.org/2000/svg">
<g clip-path="url(#clip0)">
<path d="M13.4998 23.0002H10.4998C9.94777 23.0002 9.49978 22.5512 9.49978 22.0002V17.0002H6.99978C6.79778 17.0002 6.61478 16.8782 6.53778 16.6912C6.46078 16.5042 6.50378 16.2892 6.64578 16.1462L11.6458 11.1462C11.8408 10.9513 12.1578 10.9513 12.3528 11.1462L17.3528 16.1462C17.4958 16.2892 17.5388 16.5042 17.4608 16.6912C17.3828 16.8782 17.2018 17.0002 16.9998 17.0002H14.4998V22.0002C14.4998 22.5512 14.0518 23.0002 13.4998 23.0002ZM8.20678 16.0002H9.99977C10.2758 16.0002 10.4998 16.2242 10.4998 16.5002V22.0002H13.4998V16.5002C13.4998 16.2242 13.7238 16.0002 13.9998 16.0002H15.7928L11.9998 12.2072L8.20678 16.0002Z" fill="#3B3B3B"/>
<path d="M4.50099 16.97C4.48199 16.97 4.46399 16.969 4.44399 16.967C1.911 16.686 0 14.55 0 12C0 9.358 2.059 7.189 4.65599 7.012C5.34799 3.556 8.43298 1 12 1C14.801 1 17.381 2.578 18.653 5.044C21.675 5.361 24 7.922 24 11C24 13.68 22.204 16.05 19.634 16.762C19.366 16.835 19.092 16.679 19.019 16.413C18.945 16.147 19.101 15.871 19.367 15.798C21.506 15.206 23 13.232 23 11C23 8.353 20.937 6.165 18.303 6.019C18.118 6.009 17.955 5.898 17.877 5.731C16.819 3.465 14.513 2 12 2C8.78498 2 6.02299 4.395 5.57499 7.57C5.53999 7.816 5.32899 8 5.07999 8C2.79399 8 0.999998 9.794 0.999998 12C0.999998 14.04 2.52799 15.748 4.55599 15.973C4.82999 16.004 5.02799 16.251 4.99699 16.525C4.96899 16.781 4.75199 16.97 4.50099 16.97Z" fill="#3B3B3B"/>
</g>
<defs>
<clipPath id="clip0">
<rect width="24" height="24" fill="white"/>
</clipPath>
</defs>
</svg>
