<svg width="18" height="18" viewBox="0 0 18 18" fill="none" xmlns="http://www.w3.org/2000/svg">
<g clip-path="url(#clip0)">
<path d="M13.8036 1.44531C14.2456 1.44531 14.8884 1.45193 15.54 1.4606C16.6271 1.47507 17.5 2.36294 17.5 3.45364L17.5 5.52656V14.6227C17.5 15.6869 16.6335 16.5535 15.5693 16.5535H2.43077C1.36658 16.5535 0.5 15.6869 0.5 14.6227V3.37609C0.5 2.3119 1.36658 1.44531 2.43077 1.44531H13.8036Z" stroke="white"/>
<path d="M13.5403 9.67833C13.8668 9.67833 14.1314 9.41367 14.1314 9.08721C14.1314 8.76074 13.8668 8.49609 13.5403 8.49609C13.2139 8.49609 12.9492 8.76074 12.9492 9.08721C12.9492 9.41367 13.2139 9.67833 13.5403 9.67833Z" fill="white"/>
</g>
<defs>
<clipPath id="clip0">
<rect width="18" height="18" fill="white"/>
</clipPath>
</defs>
</svg>
